<svg width="37" height="33" viewBox="0 0 37 33" fill="none" xmlns="http://www.w3.org/2000/svg">
<path d="M1.55834 14.5684C1.83162 13.3358 2.92238 12.4588 4.18216 12.4588H7.40175L4.71389 24.5813H2.68892C0.969386 24.5813 -0.307923 22.9854 0.0650964 21.303L1.55834 14.5684ZM25.7362 8.41803H13.6416L13.2327 10.3296C12.9671 11.5715 11.8719 12.4588 10.6046 12.4588H7.40175L8.96176 5.15988C9.22726 3.91773 10.3225 3.03027 11.5899 3.03027H23.5632C25.2743 3.03027 26.5499 4.61153 26.1914 6.28846L25.7362 8.41803ZM20.1438 27.8395C19.8783 29.0816 18.7831 29.9691 17.5157 29.9691H6.88629C5.17516 29.9691 3.89965 28.3878 4.2581 26.7109L4.71389 24.5813H20.8403L20.1438 27.8395ZM25.2938 14.4793C27.0425 14.4793 28.3255 16.1263 27.9014 17.8265L26.7255 22.5408C26.4263 23.74 25.3513 24.5813 24.1179 24.5813H20.8403L22.0168 19.867H8.7456L9.44208 16.6088C9.70757 15.3667 10.8028 14.4793 12.0702 14.4793H25.2938Z" fill="white"/>
</svg>
